<svg xmlns="http://www.w3.org/2000/svg" xmlns:xlink="http://www.w3.org/1999/xlink" width="230" height="80" viewBox="0 0 230 80">
	<defs>
		<style>
			.a{fill:none;}
			.b{fill:url(#portal-a);}
			.c{fill:url(#portal-b);}
			.d{opacity:0.28;}
			.e{fill:url(#portal-c);}
			.f{fill:#fff;}
		</style>
		<linearGradient id="portal-a" x1="0.963" y1="0.047" x2="-0.024" y2="1.003" gradientUnits="objectBoundingBox">
			<stop offset="0.13" stop-color="#620050" />
			<stop offset="0.36" stop-color="#422a88" />
			<stop offset="0.6" stop-color="#2287c2" />
			<stop offset="0.75" stop-color="#0ebfe6" />
			<stop offset="0.89" stop-color="#00e7ff" />
			<stop offset="1" stop-color="#00e7ff" />
		</linearGradient>
		<linearGradient id="portal-b" x1="-4.303" y1="279.232" x2="-4.95" y2="281.605" gradientUnits="objectBoundingBox">
			<stop offset="0.13" stop-color="#620050" />
			<stop offset="0.47" stop-color="#422a88" />
			<stop offset="0.99" stop-color="#00e7ff" />
		</linearGradient>
		<linearGradient id="portal-c" x1="-0.04" y1="0.008" x2="1.17" y2="1.061" gradientUnits="objectBoundingBox">
			<stop offset="0.04" stop-color="#8f00af" />
			<stop offset="0.18" stop-color="#ba019b" />
			<stop offset="0.31" stop-color="#dc028c" />
			<stop offset="0.42" stop-color="#f10382" />
			<stop offset="0.49" stop-color="#f8037f" />
			<stop offset="0.56" stop-color="#e70382" />
			<stop offset="0.69" stop-color="#ba028a" />
			<stop offset="0.88" stop-color="#730198" />
			<stop offset="0.96" stop-color="#50009e" />
		</linearGradient>
	</defs>
	<g transform="translate(-1885 -198)">
		<g transform="translate(1039 -378)">
			<rect class="a" width="230" height="80" transform="translate(846 576)" />
		</g>
		<g transform="translate(1924 207.759)">
			<g transform="translate(0 0)">
				<path class="b" d="M54.306,36.66q-.284.6-.63,1.183C50.883,42.5,46.437,45.193,41.82,47.78c-4.275,2.395-8.7,4.536-13.166,6.549a1.613,1.613,0,0,1-2.266-1.434A85.468,85.468,0,0,1,26.5,39.316a5.42,5.42,0,0,1,.8-2.613,6.175,6.175,0,0,1,1.843-1.5c.89-.553,7.627-3.449,8.312-5.418.653-1.871-1.642-3.543-3.083-4.9-1.636-1.545-3.468-3.067-5.456-4.7-.347-.25-1.008-.783-1.821-1.358a3.054,3.054,0,0,0-4.565,1.336C18.585,31.26,17.656,43,18.557,54.671c.012.142.023.278.036.42a.031.031,0,0,1,0,.027.238.238,0,0,1,0,.053,2.819,2.819,0,0,1-.449,1.938,2.679,2.679,0,0,1-1.445.945c-.021.008-.047.011-.072.019a1.255,1.255,0,0,1-.17.039.358.358,0,0,0-.051.015c-2.716.628-7.117,1.545-9.861,1.856A6.266,6.266,0,0,1,5.392,60a5.379,5.379,0,0,1-4.92-4.7C-.884,44.875.8,27.862,3.983,17.949,5.514,13.178,7.17,7.776,10.82,4.15,14.016.974,18.446-.156,22.856.044A26.531,26.531,0,0,1,36.61,4.779c1.916,1.291,3.768,2.673,4.726,3.36,4.793,4.027,8.1,6.927,11.093,11.967a24.4,24.4,0,0,1,2.561,5.982A15.462,15.462,0,0,1,54.306,36.66Z" transform="translate(0 -0.019)" />
				<path class="c" d="M122.414,434.7l.051-.011a.183.183,0,0,0-.051.015Z" transform="translate(-106.003 -376.6)" />
				<path class="d" d="M43.914,75.13c.879-.176,13.741,3.691,21.8,11.395,4.439,4.243,12.144,10.528,14.754,23.787l2.609-3.574-5.13-18.426L60.681,74.082,47.386,72.449Z" transform="translate(-38.027 -62.817)" />
				<path class="e" d="M93.018,26.15c-1.977-7.507-6.673-12.3-13.667-18.005-.913-.744-2.815-2.075-4.724-3.372A26.408,26.408,0,0,0,60.882.025c-6.677-.31-11.853,2.2-15.111,8.3a32.805,32.805,0,0,0-1.857,4.062,20.27,20.27,0,0,1,4.558-.288,26.373,26.373,0,0,1,13.745,4.748c1.914,1.295,3.767,2.681,4.724,3.372,4.881,4.01,8.841,7.35,11.281,12.042A29.174,29.174,0,0,1,80.6,38.224a15.016,15.016,0,0,1-.134,9.352A43.533,43.533,0,0,0,87.3,43.107C92.82,38.612,94.828,33.022,93.018,26.15Z" transform="translate(-38.027 0)" />
				<path class="f" d="M471.23,94.586a4.236,4.236,0,0,0,2.077-.526,5.648,5.648,0,0,0,1.743-1.551l2.7,2.554a8.014,8.014,0,0,1-2.913,2.315,8.444,8.444,0,0,1-3.754.883,9.076,9.076,0,0,1-3.485-.67,8.645,8.645,0,0,1-2.792-1.815,8.706,8.706,0,0,1-1.85-9.513,8.312,8.312,0,0,1,1.862-2.733,8.825,8.825,0,0,1,2.8-1.812,8.982,8.982,0,0,1,3.473-.67,8.77,8.77,0,0,1,3.841.89,7.759,7.759,0,0,1,2.937,2.363l-2.77,2.626a5.774,5.774,0,0,0-1.826-1.66,4.447,4.447,0,0,0-2.185-.562,4.3,4.3,0,0,0-1.814.382,4.489,4.489,0,0,0-1.444,1.039,4.748,4.748,0,0,0-.956,1.575,5.547,5.547,0,0,0-.346,1.969,5.289,5.289,0,0,0,.358,1.959,4.7,4.7,0,0,0,.991,1.563,4.546,4.546,0,0,0,1.492,1.027,4.663,4.663,0,0,0,1.867.366Z" transform="translate(-400.417 -70.229)" />
				<path class="f" d="M592.834,99.741V83.029h4.106v13.2h8.283v3.511Z" transform="translate(-513.505 -71.946)" />
				<path class="f" d="M702.914,99.741V83.029h4.106V99.741Z" transform="translate(-608.845 -71.946)" />
				<path class="f" d="M766.664,99.741V83.029h12.63v3.44H770.77v3.174h6.017v3.341H770.77V96.3h8.619v3.439Z" transform="translate(-664.074 -71.946)" />
				<path class="f" d="M887.534,83.029H891.4l7.425,10.121-.072-10.121h3.87V99.741h-3.628l-7.663-10.456.071,10.456h-3.869Z" transform="translate(-768.807 -71.946)" />
				<path class="f" d="M1017.7,86.537V83.029h14.872v3.508h-5.37v13.2H1023.1v-13.2Z" transform="translate(-881.523 -71.946)" />
				<path class="f" d="M467.734,273.366V257.835h7.588a6.231,6.231,0,0,1,2.251.389,5.265,5.265,0,0,1,1.731,1.066,4.612,4.612,0,0,1,1.109,1.619,5.34,5.34,0,0,1,.389,2.052,5,5,0,0,1-.389,1.964,4.54,4.54,0,0,1-1.109,1.586,5.361,5.361,0,0,1-1.735,1.052,6.227,6.227,0,0,1-2.251.387h-3.768v5.415Zm6.921-12.379h-3.106v3.927h3.083a2.377,2.377,0,0,0,1.729-.566,1.892,1.892,0,0,0,.578-1.409,1.869,1.869,0,0,0-.578-1.388,2.35,2.35,0,0,0-1.707-.566Z" transform="translate(-405.145 -223.413)" />
				<path class="f" d="M593.152,264.052a7.937,7.937,0,0,1-8.009,8.009,8.086,8.086,0,0,1-3.161-.621,7.776,7.776,0,0,1-4.248-4.248,8.246,8.246,0,0,1,0-6.278,7.775,7.775,0,0,1,4.248-4.244,8.065,8.065,0,0,1,3.161-.622,7.955,7.955,0,0,1,8.009,8.009Zm-3.949,0a5.332,5.332,0,0,0-.31-1.83,4.478,4.478,0,0,0-.854-1.464,4.034,4.034,0,0,0-1.3-.965,3.867,3.867,0,0,0-3.237,0,4.022,4.022,0,0,0-1.3.965,4.478,4.478,0,0,0-.854,1.464,5.561,5.561,0,0,0,0,3.66,4.5,4.5,0,0,0,.855,1.465,4,4,0,0,0,1.3.964,3.866,3.866,0,0,0,3.237,0,4.008,4.008,0,0,0,1.3-.964,4.5,4.5,0,0,0,.854-1.465,5.32,5.32,0,0,0,.308-1.83Z" transform="translate(-499.892 -221.866)" />
				<path class="f" d="M712.684,273.367V257.837h7.542a6.434,6.434,0,0,1,2.208.366,5.175,5.175,0,0,1,1.731,1.022,4.693,4.693,0,0,1,1.13,1.563,4.808,4.808,0,0,1,.412,2,4.526,4.526,0,0,1-.788,2.617,4.856,4.856,0,0,1-2.1,1.731l3.262,6.235h-4.259l-2.815-5.7H716.5v5.7Zm7.188-12.379H716.5v3.683h3.373a2.006,2.006,0,0,0,1.43-.509,1.9,1.9,0,0,0,0-2.662,2,2,0,0,0-1.43-.512Z" transform="translate(-617.319 -223.414)" />
				<path class="f" d="M821.344,261.1v-3.262h13.821V261.1h-4.992V273.37h-3.815V261.1Z" transform="translate(-711.439 -223.416)" />
				<path class="f" d="M910.154,273.378l6.057-15.529h4.347l5.966,15.529H922.4l-1.286-3.705h-5.679l-1.31,3.705Zm6.322-6.655h3.62l-1.8-5.142Z" transform="translate(-788.394 -223.425)" />
				<path class="f" d="M1044.63,273.37V257.839h3.815v12.268h7.7v3.263Z" transform="translate(-904.843 -223.416)" />
			</g>
		</g>
	</g>
</svg>
